<svg width="100" height="100" viewBox="0 0 100 100" fill="none" xmlns="http://www.w3.org/2000/svg">
<path d="M31.7588 0H42.5004V4.49165H36.2504V8.98331H42.5004V13.475H31.7588V0ZM44.6463 0H55.3921V3.90832H49.1421V4.68749H55.3921V13.6708H44.6463V9.57081H50.8962V8.78747H44.6463V0ZM57.542 0H68.2795V3.90832H62.0295V4.68749H68.2795V13.6708H57.542V9.57081H63.792V8.78747H57.542V0Z" fill="#EDD51C"/>
<path fill-rule="evenodd" clip-rule="evenodd" d="M50.4624 99.9999L21.5291 91.9666L13 19.6543H87.9998L79.4748 91.9583L50.4624 99.9999ZM29.8625 52.3875L30.6583 61.2542H61.3957L60.3665 72.7542L50.4749 75.4291H50.4666L40.5916 72.7625L39.9583 65.6917H31.0541L32.2958 79.6166L50.4624 84.6583L68.6582 79.6166L70.8748 54.7667L71.0915 52.3875L72.6915 34.4334H28.2666L29.075 43.3042H62.9749L62.1665 52.3875H29.8625Z" fill="#EDD51C"/>
</svg>
