<svg width="75" height="100" viewBox="0 0 75 100" fill="none" xmlns="http://www.w3.org/2000/svg">
<path d="M18.7588 0H29.5004V4.49165H23.2504V8.98331H29.5004V13.475H18.7588V0ZM31.6463 0H42.3921V3.90832H36.1421V4.68749H42.3921V13.6708H31.6463V9.57081H37.8962V8.78747H31.6463V0ZM44.542 0H55.2795V3.90832H49.0295V4.68749H55.2795V13.6708H44.542V9.57081H50.792V8.78747H44.542V0Z" fill="#EDD51C"/>
<path fill-rule="evenodd" clip-rule="evenodd" d="M37.4624 99.9999L8.52914 91.9666L0 19.6543H74.9998L66.4748 91.9583L37.4624 99.9999ZM16.8625 52.3875L17.6583 61.2542H48.3957L47.3665 72.7542L37.4749 75.4292H37.4666L27.5916 72.7625L26.9583 65.6917H18.0541L19.2958 79.6166L37.4624 84.6583L55.6582 79.6166L57.8748 54.7667L58.0915 52.3875L59.6915 34.4334H15.2666L16.075 43.3042H49.9749L49.1665 52.3875H16.8625V52.3875Z" fill="#EDD51C"/>
</svg>
