<svg width="76" height="100" viewBox="0 0 76 100" fill="none" xmlns="http://www.w3.org/2000/svg">
<path d="M8.68457 0H13.2004V4.46161H17.3323V0H21.8482V13.5059H17.3323V8.98583H13.2004V13.5059H8.68874V0H8.68457ZM27.7831 4.4783H23.8098V0H36.2764V4.4783H32.299V13.5059H27.7831V4.4783V4.4783ZM38.2547 0H42.9626L45.8591 4.74542L48.7514 0H53.4593V13.5059H48.9643V6.81136L45.8591 11.6152H45.7798L42.6704 6.81554V13.5059H38.2547V0V0ZM55.7047 0H60.2247V9.04426H66.5686V13.51H55.7047V0V0Z" fill="#EDD51C"/>
<path fill-rule="evenodd" clip-rule="evenodd" d="M8.53925 91.9534L0 19.52H75.1253L66.5819 91.945L37.5209 100L8.53925 91.9534ZM25.8056 52.3039L24.9959 43.2054H58.9901L59.7831 34.3239H15.2922L17.6878 61.1895H48.4767L47.4458 72.7088L37.5376 75.3882H37.5293L27.6378 72.7171L27.0034 65.6344H18.0802L19.3239 79.5827L37.5209 84.6328L55.7472 79.5827L57.9675 54.6912L58.1846 52.3081H25.8056V52.3039Z" fill="#EDD51C"/>
</svg>
