<svg width="100" height="100" viewBox="0 0 100 100" fill="none" xmlns="http://www.w3.org/2000/svg">
<path d="M20.6846 0H25.2004V4.46161H29.3323V0H33.8482V13.5059H29.3323V8.98583H25.2004V13.5059H20.6887V0H20.6846ZM39.7831 4.4783H35.8098V0H48.2764V4.4783H44.299V13.5059H39.7831V4.4783V4.4783ZM50.2547 0H54.9626L57.8591 4.74542L60.7514 0H65.4593V13.5059H60.9643V6.81136L57.8591 11.6152H57.7798L54.6704 6.81554V13.5059H50.2547V0V0ZM67.7047 0H72.2247V9.04426H78.5686V13.51H67.7047V0V0Z" fill="#EDD51C"/>
<path fill-rule="evenodd" clip-rule="evenodd" d="M20.5392 91.9534L12 19.52H87.1253L78.5819 91.945L49.5209 100L20.5392 91.9534ZM37.8056 52.3039L36.9959 43.2054H70.9901L71.7831 34.3239H27.2922L29.6878 61.1895H60.4767L59.4458 72.7088L49.5376 75.3882H49.5293L39.6378 72.7171L39.0034 65.6344H30.0802L31.3239 79.5827L49.5209 84.6328L67.7472 79.5827L69.9675 54.6912L70.1846 52.3081H37.8056V52.3039Z" fill="#EDD51C"/>
</svg>
