<svg width="100" height="100" viewBox="0 0 100 100" fill="none" xmlns="http://www.w3.org/2000/svg">
<path fill-rule="evenodd" clip-rule="evenodd" d="M13 13H88V88H13V13ZM70.3344 75.875C66.8563 75.875 64.8906 74.0625 63.3812 71.5938L57.6531 74.9219C59.7219 79.0094 63.95 82.1281 70.4969 82.1281C77.1906 82.1281 82.175 78.6531 82.175 72.3063C82.175 66.4219 78.7938 63.8063 72.8063 61.2344L71.0437 60.4813C68.0187 59.1688 66.7094 58.3156 66.7094 56.2C66.7094 54.4906 68.0219 53.1812 70.0844 53.1812C72.1063 53.1812 73.4094 54.0344 74.6188 56.2L80.1063 52.6781C77.7844 48.5937 74.5656 47.0344 70.0844 47.0344C63.7906 47.0344 59.7625 51.0594 59.7625 56.3469C59.7625 62.0813 63.1375 64.7969 68.225 66.9625L69.9875 67.7188C73.2031 69.125 75.1188 69.9812 75.1188 72.3969C75.1188 74.4156 73.2531 75.875 70.3344 75.875V75.875ZM43.0219 75.8281C40.6 75.8281 39.5906 74.1719 38.4844 72.2031L32.7469 75.6781C34.4094 79.1969 37.6781 82.1156 43.3187 82.1156C49.5656 82.1156 53.8437 78.7937 53.8437 71.4969V47.4344H46.7969V71.4031C46.7969 74.925 45.3344 75.8281 43.0187 75.8281H43.0219Z" fill="#EDD51C"/>
</svg>
