<svg width="100" height="100" viewBox="0 0 100 100" fill="none" xmlns="http://www.w3.org/2000/svg">
<path d="M49.4219 80.8108C49.0937 80.8108 48.7656 80.7177 48.4688 80.5626L45.4688 78.794C45.0156 78.5458 45.2344 78.4528 45.3906 78.4062C45.9844 78.2045 46.1094 78.158 46.75 77.7857C46.8125 77.7546 46.9063 77.7702 46.9688 77.8012L49.2812 79.1664C49.3594 79.2129 49.4844 79.2129 49.5625 79.1664L58.5938 73.9849C58.6719 73.9383 58.7344 73.8452 58.7344 73.7366V63.3891C58.7344 63.2805 58.6875 63.1874 58.5938 63.1409L49.5625 57.9749C49.4844 57.9283 49.375 57.9283 49.2812 57.9749L40.25 63.1409C40.1563 63.1874 40.1094 63.296 40.1094 63.3891V73.7366C40.1094 73.8297 40.1719 73.9228 40.25 73.9693L42.7187 75.3811C44.0625 76.0482 44.8906 75.257 44.8906 74.4813V64.2579C44.8906 64.1182 45 63.9941 45.1562 63.9941H46.2969C46.4375 63.9941 46.5625 64.1027 46.5625 64.2579V74.4813C46.5625 76.2653 45.5937 77.2737 43.8906 77.2737C43.375 77.2737 42.9531 77.2737 41.8125 76.7152L39.4375 75.3656C38.8594 75.0243 38.4844 74.4037 38.4844 73.7366V63.3891C38.4844 62.722 38.8437 62.086 39.4375 61.7602L48.4688 56.5787C49.0469 56.2529 49.7969 56.2529 50.3594 56.5787L59.3906 61.7602C59.9688 62.1015 60.3438 62.722 60.3438 63.3891V73.7366C60.3438 74.4037 59.9844 75.0398 59.3906 75.3656L50.3594 80.5471C50.0937 80.7177 49.7656 80.8108 49.4219 80.8108V80.8108ZM56.7188 70.6029C56.7188 68.6637 55.4062 68.1518 52.625 67.7794C49.8125 67.4071 49.5312 67.221 49.5312 66.5694C49.5312 66.0264 49.7656 65.3128 51.8437 65.3128C53.7031 65.3128 54.3906 65.7161 54.6719 66.9572C54.7031 67.0813 54.7969 67.1589 54.9219 67.1589H56.0938C56.1719 67.1589 56.2344 67.1279 56.2813 67.0813C56.3281 67.0193 56.3594 66.9572 56.3438 66.8797C56.1563 64.7388 54.7344 63.7459 51.8437 63.7459C49.2656 63.7459 47.7344 64.8319 47.7344 66.6314C47.7344 68.6017 49.2656 69.1291 51.7344 69.3773C54.6875 69.6721 54.9219 70.091 54.9219 70.665C54.9219 71.6733 54.1094 72.0922 52.2031 72.0922C49.8125 72.0922 49.2812 71.5027 49.1094 70.3237C49.0937 70.1995 48.9844 70.1065 48.8438 70.1065H47.6719C47.5313 70.1065 47.4062 70.2151 47.4062 70.3702C47.4062 71.875 48.2344 73.6746 52.1875 73.6746C55.0781 73.6746 56.7188 72.5576 56.7188 70.6029V70.6029ZM65.2344 62.8306C65.2344 63.7769 64.4531 64.5526 63.5 64.5526C62.5469 64.5526 61.7656 63.7769 61.7656 62.8306C61.7656 61.8533 62.5781 61.1086 63.5 61.1086C64.4375 61.0931 65.2344 61.8533 65.2344 62.8306ZM64.9531 62.8306C64.9531 62.0239 64.2969 61.3879 63.4844 61.3879C62.6875 61.3879 62.0312 62.0239 62.0312 62.8306C62.0312 63.6373 62.6875 64.2889 63.4844 64.2889C64.2969 64.2734 64.9531 63.6218 64.9531 62.8306ZM64.25 63.7925H63.8438C63.8281 63.6994 63.7656 63.2029 63.7656 63.1874C63.7344 63.0788 63.7031 63.0168 63.5625 63.0168H63.2188V63.7925H62.8438V61.8533H63.5156C63.75 61.8533 64.2031 61.8533 64.2031 62.3652C64.2031 62.722 63.9687 62.7996 63.8281 62.8461C64.0938 62.8616 64.1094 63.0323 64.1563 63.2805C64.1719 63.4356 64.2031 63.6994 64.25 63.7925V63.7925ZM63.8125 62.4273C63.8125 62.1635 63.625 62.1635 63.5313 62.1635H63.2188V62.7065H63.5156C63.7656 62.7065 63.8125 62.5359 63.8125 62.4273V62.4273ZM21.4531 40.3205C21.4531 39.9016 21.2344 39.5293 20.875 39.3276L11.2969 33.8513C11.1406 33.7583 10.9531 33.7117 10.7656 33.6962H10.6719C10.4844 33.6962 10.3125 33.7583 10.1406 33.8513L0.578125 39.3276C0.21875 39.5293 0 39.9171 0 40.3205L0.015625 55.0583C0.015625 55.26 0.125 55.4462 0.296875 55.5548C0.46875 55.6634 0.6875 55.6634 0.875 55.5548L6.5625 52.3124C6.92187 52.0953 7.14063 51.7229 7.14063 51.3196V44.4316C7.14063 44.0282 7.35938 43.6404 7.71875 43.4387L10.1406 42.058C10.3281 41.9494 10.5156 41.9029 10.7187 41.9029C10.9219 41.9029 11.125 41.9494 11.2969 42.058L13.7188 43.4387C14.0781 43.6404 14.2969 44.0282 14.2969 44.4316V51.3196C14.2969 51.7229 14.5156 52.1108 14.875 52.3124L20.5625 55.5548C20.7344 55.6634 20.9688 55.6634 21.1406 55.5548C21.3125 55.4617 21.4219 55.26 21.4219 55.0583L21.4531 40.3205ZM73.8281 24.2329V51.5988C73.8281 52.0022 73.6094 52.39 73.25 52.5917L63.6719 58.0835C63.3125 58.2852 62.875 58.2852 62.5156 58.0835L52.9375 52.5917C52.5781 52.39 52.3594 52.0022 52.3594 51.5988V40.6152C52.3594 40.2119 52.5781 39.824 52.9375 39.6224L62.5156 34.1306C62.875 33.9289 63.3125 33.9289 63.6719 34.1306L66.0625 35.4958C66.3281 35.6509 66.6719 35.4492 66.6719 35.1545V20.5717C66.6719 20.1374 67.1406 19.8581 67.5313 20.0753L73.2344 23.2401C73.5938 23.4262 73.8281 23.8141 73.8281 24.2329V24.2329ZM66.6406 44.2299C66.6406 44.1213 66.5781 44.0282 66.5 43.9817L63.2188 42.089C63.125 42.0425 63.0156 42.0425 62.9219 42.089L59.6406 43.9817C59.5469 44.0282 59.5 44.1213 59.5 44.2299V47.9997C59.5 48.1083 59.5625 48.2014 59.6406 48.2479L62.9219 50.125C63.0156 50.1716 63.125 50.1716 63.2031 50.125L66.4844 48.2479C66.5781 48.2014 66.625 48.1083 66.625 47.9997V44.2299H66.6406ZM99.4219 44.1213C99.7812 43.9196 100 43.5318 100 43.1284V40.4756C100 40.0723 99.7812 39.6844 99.4219 39.4827L89.9063 33.991C89.5469 33.7893 89.1094 33.7893 88.75 33.991L79.1719 39.4827C78.8125 39.6844 78.5938 40.0723 78.5938 40.4756V51.4592C78.5938 51.8781 78.8125 52.2504 79.1719 52.4521L88.6875 57.8353C89.0312 58.0369 89.4688 58.0369 89.8281 57.8353L95.5781 54.655C95.9688 54.4378 95.9688 53.8793 95.5781 53.6621L85.9375 48.1703C85.75 48.0617 85.6406 47.8756 85.6406 47.6739V44.2299C85.6406 44.0282 85.75 43.8421 85.9375 43.7335L88.9375 42.0115C89.1094 41.9029 89.3438 41.9029 89.5156 42.0115L92.5156 43.7335C92.6875 43.8421 92.8125 44.0282 92.8125 44.2299V46.9292C92.8125 47.3636 93.2969 47.6429 93.6875 47.4257L99.4219 44.1213V44.1213ZM87.3438 44.6643C87.2812 44.7108 87.2344 44.7729 87.2344 44.8504V46.9603C87.2344 47.0378 87.2812 47.1154 87.3438 47.1464L89.1875 48.2014C89.25 48.2479 89.3438 48.2479 89.4063 48.2014L91.25 47.1464C91.3125 47.0999 91.3594 47.0378 91.3594 46.9603V44.8504C91.3594 44.7729 91.3125 44.6953 91.25 44.6643L89.4063 43.6093C89.3438 43.5628 89.25 43.5628 89.1875 43.6093L87.3438 44.6643ZM47.625 51.4127V40.4911C47.625 40.0878 47.375 39.6999 47.0156 39.4983L37.4688 34.0375C37.1406 33.8513 36.6875 33.8203 36.3125 34.0375L26.7656 39.4983C26.4063 39.6999 26.1562 40.0723 26.1562 40.4911V51.4127C26.1562 51.847 26.4531 52.2194 26.7812 52.4055L36.3438 57.8663C36.7188 58.0835 37.1562 58.068 37.5 57.8663L47.0312 52.4055C47.3125 52.2504 47.5156 51.9867 47.5938 51.6764C47.6094 51.5988 47.625 51.5057 47.625 51.4127ZM36.0156 32.0363L35.8906 32.1138H36.0625L36.0156 32.0363V32.0363ZM47.9219 52.2349L47.8594 52.1263V52.2659L47.9219 52.2349Z" fill="#EDD51C"/>
</svg>
