<svg width="165" height="100" viewBox="0 0 165 100" fill="none" xmlns="http://www.w3.org/2000/svg">
<path d="M81.2715 100C80.7319 100 80.1924 99.8469 79.7042 99.5918L74.7708 96.6835C74.0257 96.2754 74.3854 96.1223 74.6424 96.0458C75.6188 95.7141 75.8243 95.6376 76.8778 95.0253C76.9806 94.9743 77.1347 94.9998 77.2375 95.0508L81.0403 97.2958C81.1687 97.3723 81.3743 97.3723 81.5028 97.2958L96.3542 88.7751C96.4826 88.6986 96.5854 88.5455 96.5854 88.3669V71.351C96.5854 71.1724 96.5083 71.0193 96.3542 70.9428L81.5028 62.4476C81.3743 62.371 81.1944 62.371 81.0403 62.4476L66.1889 70.9428C66.0347 71.0193 65.9576 71.1979 65.9576 71.351V88.3669C65.9576 88.52 66.0604 88.673 66.1889 88.7496L70.2486 91.0711C72.4583 92.1681 73.8201 90.867 73.8201 89.5915V72.7796C73.8201 72.55 74 72.3459 74.2569 72.3459H76.1326C76.3639 72.3459 76.5694 72.5245 76.5694 72.7796V89.5915C76.5694 92.5252 74.9764 94.1835 72.1757 94.1835C71.3278 94.1835 70.634 94.1835 68.7583 93.2651L64.8528 91.0456C63.9021 90.4843 63.2854 89.4639 63.2854 88.3669V71.351C63.2854 70.254 63.8764 69.208 64.8528 68.6723L79.7042 60.1516C80.6549 59.6158 81.8882 59.6158 82.8132 60.1516L97.6646 68.6723C98.6153 69.2336 99.2319 70.254 99.2319 71.351V88.3669C99.2319 89.4639 98.641 90.5098 97.6646 91.0456L82.8132 99.5663C82.3764 99.8469 81.8368 100 81.2715 100V100ZM93.2708 83.2137C93.2708 80.0248 91.1125 79.1829 86.5389 78.5706C81.9139 77.9584 81.4514 77.6522 81.4514 76.5808C81.4514 75.6879 81.8368 74.5144 85.2542 74.5144C88.3118 74.5144 89.4424 75.1777 89.9049 77.2185C89.9562 77.4226 90.1104 77.5502 90.316 77.5502H92.2431C92.3715 77.5502 92.4743 77.4992 92.5514 77.4226C92.6285 77.3206 92.6799 77.2185 92.6542 77.091C92.3458 73.5704 90.0076 71.9377 85.2542 71.9377C81.0146 71.9377 78.4965 73.7235 78.4965 76.6828C78.4965 79.9227 81.0146 80.7901 85.0743 81.1983C89.9306 81.683 90.316 82.3718 90.316 83.3157C90.316 84.9739 88.9799 85.6627 85.8451 85.6627C81.9139 85.6627 81.0403 84.6933 80.7576 82.7545C80.7319 82.5504 80.5521 82.3973 80.3208 82.3973H78.3938C78.1625 82.3973 77.9569 82.5759 77.9569 82.831C77.9569 85.3056 79.3188 88.2649 85.8194 88.2649C90.5729 88.2649 93.2708 86.4281 93.2708 83.2137V83.2137ZM107.274 70.4326C107.274 71.9888 105.99 73.2643 104.422 73.2643C102.855 73.2643 101.57 71.9888 101.57 70.4326C101.57 68.8254 102.906 67.6008 104.422 67.6008C105.964 67.5753 107.274 68.8254 107.274 70.4326ZM106.812 70.4326C106.812 69.106 105.733 68.06 104.397 68.06C103.086 68.06 102.007 69.106 102.007 70.4326C102.007 71.7592 103.086 72.8306 104.397 72.8306C105.733 72.8051 106.812 71.7336 106.812 70.4326ZM105.656 72.0143H104.988C104.962 71.8612 104.859 71.0448 104.859 71.0193C104.808 70.8408 104.756 70.7387 104.525 70.7387H103.96V72.0143H103.343V68.8254H104.448C104.833 68.8254 105.578 68.8254 105.578 69.6672C105.578 70.254 105.193 70.3816 104.962 70.4581C105.399 70.4836 105.424 70.7642 105.501 71.1724C105.527 71.4275 105.578 71.8612 105.656 72.0143V72.0143ZM104.936 69.7693C104.936 69.3356 104.628 69.3356 104.474 69.3356H103.96V70.2285H104.448C104.859 70.2285 104.936 69.9479 104.936 69.7693V69.7693ZM35.2785 33.4159C35.2785 32.7271 34.9188 32.1148 34.3278 31.7832L18.5771 22.7778C18.3201 22.6247 18.0118 22.5482 17.7035 22.5226H17.5493C17.241 22.5226 16.9583 22.6247 16.6757 22.7778L0.950694 31.7832C0.359722 32.1148 0 32.7526 0 33.4159L0.0256944 57.6515C0.0256944 57.9831 0.205556 58.2893 0.488194 58.4678C0.770833 58.6464 1.13056 58.6464 1.43889 58.4678L10.7917 53.136C11.3826 52.7789 11.7424 52.1666 11.7424 51.5033V40.1764C11.7424 39.5131 12.1021 38.8753 12.6931 38.5436L16.6757 36.2731C16.984 36.0946 17.2924 36.018 17.6264 36.018C17.9604 36.018 18.2944 36.0946 18.5771 36.2731L22.5597 38.5436C23.1507 38.8753 23.5104 39.5131 23.5104 40.1764V51.5033C23.5104 52.1666 23.8701 52.8044 24.4611 53.136L33.8139 58.4678C34.0965 58.6464 34.4819 58.6464 34.7646 58.4678C35.0472 58.3148 35.2271 57.9831 35.2271 57.6515L35.2785 33.4159ZM121.406 6.96084V51.9625C121.406 52.6258 121.047 53.2636 120.456 53.5952L104.705 62.6262C104.114 62.9578 103.394 62.9578 102.803 62.6262L87.0528 53.5952C86.4618 53.2636 86.1021 52.6258 86.1021 51.9625V33.9006C86.1021 33.2373 86.4618 32.5995 87.0528 32.2679L102.803 23.237C103.394 22.9053 104.114 22.9053 104.705 23.237L108.636 25.4819C109.073 25.737 109.638 25.4054 109.638 24.9207V0.940208C109.638 0.225895 110.409 -0.233305 111.051 0.123851L120.43 5.32813C121.021 5.63426 121.406 6.27204 121.406 6.96084V6.96084ZM109.587 39.8447C109.587 39.6661 109.484 39.5131 109.356 39.4365L103.96 36.3242C103.806 36.2476 103.626 36.2476 103.472 36.3242L98.0757 39.4365C97.9215 39.5131 97.8444 39.6661 97.8444 39.8447V46.0439C97.8444 46.2225 97.9472 46.3756 98.0757 46.4521L103.472 49.5389C103.626 49.6155 103.806 49.6155 103.934 49.5389L109.33 46.4521C109.484 46.3756 109.561 46.2225 109.561 46.0439V39.8447H109.587ZM163.494 39.6661C164.085 39.3345 164.444 38.6967 164.444 38.0334V33.671C164.444 33.0077 164.085 32.3699 163.494 32.0383L147.846 23.0073C147.255 22.6757 146.535 22.6757 145.944 23.0073L130.194 32.0383C129.603 32.3699 129.243 33.0077 129.243 33.671V51.7329C129.243 52.4217 129.603 53.034 130.194 53.3656L145.842 62.218C146.407 62.5496 147.126 62.5496 147.717 62.218L157.173 56.9882C157.815 56.631 157.815 55.7126 157.173 55.3555L141.319 46.3245C141.011 46.146 140.831 45.8398 140.831 45.5082V39.8447C140.831 39.5131 141.011 39.2069 141.319 39.0284L146.253 36.1966C146.535 36.018 146.921 36.018 147.203 36.1966L152.137 39.0284C152.419 39.2069 152.625 39.5131 152.625 39.8447V44.2836C152.625 44.998 153.422 45.4572 154.064 45.1L163.494 39.6661V39.6661ZM143.632 40.559C143.529 40.6356 143.452 40.7376 143.452 40.8652V44.3347C143.452 44.4622 143.529 44.5898 143.632 44.6408L146.664 46.3756C146.767 46.4521 146.921 46.4521 147.024 46.3756L150.056 44.6408C150.158 44.5643 150.235 44.4622 150.235 44.3347V40.8652C150.235 40.7376 150.158 40.61 150.056 40.559L147.024 38.8243C146.921 38.7477 146.767 38.7477 146.664 38.8243L143.632 40.559ZM78.3167 51.6564V33.6965C78.3167 33.0332 77.9056 32.3955 77.3146 32.0638L61.6153 23.0839C61.0757 22.7777 60.3306 22.7267 59.7139 23.0839L44.0146 32.0638C43.4236 32.3955 43.0125 33.0077 43.0125 33.6965V51.6564C43.0125 52.3707 43.5007 52.9829 44.0403 53.2891L59.7653 62.269C60.3819 62.6262 61.1014 62.6007 61.6667 62.269L77.3403 53.2891C77.8028 53.034 78.1368 52.6003 78.2653 52.0901C78.291 51.9625 78.3167 51.8094 78.3167 51.6564ZM59.2257 19.7929L59.0201 19.9205H59.3028L59.2257 19.7929V19.7929ZM78.8049 53.0085L78.7021 52.8299V53.0595L78.8049 53.0085Z" fill="#EDD51C"/>
</svg>
