<svg width="97" height="100" viewBox="0 0 97 100" fill="none" xmlns="http://www.w3.org/2000/svg">
<path d="M69.6674 0C65.7808 0.0295922 61.9165 0.593228 58.1832 1.6751L57.9239 1.75948C55.575 1.35228 53.1987 1.12349 50.8153 1.07507C45.9024 0.990686 41.686 2.17826 38.2879 4.16588C34.9366 3.01269 27.9904 0.990686 20.6695 1.40009C15.5816 1.6751 10.016 3.22207 5.88074 7.58485C1.783 11.932 -0.393923 18.6699 0.0589526 27.8517C0.187007 30.3738 0.905361 34.4896 2.10782 39.8431C3.29467 45.1841 4.97187 51.4344 7.07071 57.1473C9.16955 62.8445 11.4589 67.9698 15.0413 71.4513C16.8278 73.192 19.3015 74.6765 22.2124 74.5484C24.2487 74.464 26.0852 73.5702 27.6812 72.2514C28.4589 73.2764 29.2928 73.7139 30.0393 74.1233C31.0013 74.6453 31.9101 75.0015 32.8721 75.2328C34.5962 75.6703 37.5414 76.2422 40.9895 75.6547C42.2451 75.4286 43.4689 75.0519 44.6344 74.5328L44.7812 78.6174C44.9592 82.9301 45.0779 86.9179 46.3584 90.4181C46.5708 90.99 47.1424 93.9183 49.3849 96.5216C51.6461 99.1249 56.0343 100.737 61.0628 99.6624C64.5952 98.9124 69.099 97.5467 72.0942 93.2839C75.0551 89.0837 76.3887 83.0458 76.6511 73.2452C76.7136 72.7076 76.7979 72.2701 76.876 71.8451L77.5756 71.9107H77.6599C81.4328 72.0732 85.5337 71.5357 88.9662 69.9387C91.9895 68.5386 94.2851 67.1229 95.9592 64.6009C96.3683 63.979 96.8368 63.2164 96.9555 61.9132C97.0836 60.6288 96.334 58.5911 95.0972 57.6505C92.6267 55.7628 91.065 56.4785 89.3878 56.8379C87.7452 57.192 86.0734 57.3929 84.3937 57.4379C89.2067 49.3343 92.6548 40.7088 94.6256 33.0864C95.7968 28.5768 96.4496 24.4265 96.4964 20.7982C96.562 17.1698 96.2559 13.9634 94.0884 11.1819C87.289 2.50641 77.738 0.0937558 70.3546 0.015626H69.6706L69.6674 0ZM69.4707 2.67204C76.4512 2.60641 85.3775 4.55966 91.7865 12.7602C93.2357 14.6009 93.6605 17.2854 93.6105 20.6075C93.5605 23.9296 92.9452 27.883 91.8209 32.2301C89.6595 40.665 85.5399 50.4594 79.7681 59.2693C79.9667 59.4191 80.1854 59.54 80.4178 59.6287C81.6202 60.1319 84.3687 60.5538 89.8657 59.4318C91.2493 59.1349 92.2612 58.9443 93.3169 59.7412C93.5731 59.9574 93.7754 60.2304 93.9077 60.5386C94.04 60.8467 94.0987 61.1815 94.079 61.5163C94.0221 62.0238 93.8313 62.507 93.5262 62.9164C92.4674 64.5071 90.3748 66.026 87.6888 67.2792C85.3151 68.3824 81.8951 68.9543 78.8905 68.9887C77.3632 69.0043 75.964 68.8886 74.7709 68.5136L74.7084 68.5011C74.2493 72.9108 73.1968 81.6363 72.5096 85.6053C71.9599 88.8086 70.998 91.3682 69.1615 93.2714C67.3219 95.1934 64.7358 96.331 61.2377 97.081C56.912 98.0092 53.77 97.0154 51.7398 95.3059C49.7097 93.5964 48.779 91.3182 48.2261 89.9337C47.8389 88.9743 47.6421 87.7367 47.4484 86.0741C47.2359 84.089 47.0942 82.097 47.0237 80.1018C46.8956 76.6016 46.8457 73.1014 46.8956 69.5856C45.091 71.2412 42.8492 72.3432 40.4367 72.7608C37.5601 73.2483 35.0053 72.7608 33.478 72.3857C32.7245 72.1934 31.9976 71.909 31.3136 71.5388C30.5984 71.1638 29.93 70.7419 29.4771 69.8918C29.2161 69.405 29.1354 68.8417 29.2491 68.3011C29.3841 67.752 29.6999 67.2644 30.1455 66.9167C30.9732 66.2447 32.0663 65.876 33.706 65.5322C36.7012 64.9103 37.7569 64.4915 38.3909 63.9821C38.9281 63.5602 39.5497 62.682 40.6178 61.3944C40.6178 61.3476 40.6178 61.2819 40.6022 61.2319C38.6668 61.173 36.7722 60.6602 35.0709 59.735C34.4556 60.385 31.248 63.7727 27.3626 68.4605C25.7354 70.4106 23.9302 71.5357 22.0125 71.6201C20.1104 71.6982 18.3801 70.7419 16.9184 69.323C13.9919 66.4729 11.6463 61.5726 9.61306 56.0378C7.57981 50.5031 5.93696 44.3371 4.75012 39.0962C3.57889 33.8365 2.87927 29.605 2.77933 27.5705C2.34207 18.8949 4.37532 13.0539 7.85465 9.35683C11.334 5.65973 16.1032 4.27839 20.7569 4.00337C29.1023 3.53147 37.0386 6.44415 38.6346 7.06294C41.7235 4.96281 45.7088 3.66273 50.6873 3.74086C53.0466 3.77558 55.3941 4.08177 57.6834 4.65341L57.7678 4.60341C58.775 4.25435 59.8011 3.96221 60.8411 3.72836C63.6678 3.06458 66.5581 2.70936 69.4613 2.66892L69.4707 2.67204ZM70.1047 5.45346H69.4894C67.1157 5.48159 64.7202 5.76286 62.3965 6.26601C67.5842 8.56303 71.5039 12.0914 74.268 15.6416C76.1889 18.0824 77.7661 20.7669 78.9686 23.6327C79.4433 24.7422 79.7525 25.6672 79.9149 26.3829C80.0117 26.7423 80.0617 27.0486 80.0929 27.3579C80.0929 27.5205 80.1086 27.6861 80.0274 27.9611C80.0274 27.9767 80.0117 28.0111 80.0117 28.0267C80.146 31.6738 79.234 34.1427 79.1154 37.6273C79.0373 40.1525 79.6869 43.1152 79.8493 46.3529C79.9961 49.3937 79.6245 52.7314 77.6537 56.0191C77.8161 56.216 77.9629 56.4097 78.1253 56.6223C83.3474 48.3843 87.1203 39.2868 89.1223 31.5207C90.1968 27.3361 90.7621 23.5452 90.812 20.5544C90.862 17.5573 90.3092 15.376 89.5908 14.4665C83.9939 7.3192 76.4325 5.49409 70.1016 5.45034L70.1047 5.45346ZM50.1438 6.5254C45.234 6.54103 41.7016 8.0255 39.0218 10.2538C36.2515 12.5664 34.3994 15.7072 33.1969 18.9449C31.7477 22.7702 31.2449 26.4798 31.0481 29.0049L31.1137 28.9705C32.8478 27.999 34.7098 27.2762 36.645 26.8235C38.7283 26.3329 40.9895 26.186 43.0196 26.986C45.0716 27.7642 46.7457 29.6362 47.3641 32.452C50.2969 46.0279 46.4552 51.075 45.0404 54.8815C44.5032 56.266 44.0316 57.6661 43.6568 59.0974C43.8348 59.063 44.016 59.013 44.194 58.9974C45.2028 58.9193 45.9805 59.2443 46.4396 59.4381C47.8732 60.0381 48.8477 61.2757 49.3849 62.6914C49.5168 63.0778 49.614 63.4753 49.6753 63.879C49.7292 64.0478 49.7576 64.2237 49.7597 64.4009C49.5957 69.5918 49.6113 74.7869 49.8065 79.9768C49.9065 82.2238 50.0533 84.1927 50.2313 85.7553C50.4093 87.3023 50.6529 88.4899 50.8185 88.8961C51.3525 90.2306 52.1334 91.9713 53.5513 93.1589C54.9506 94.3496 56.9651 95.1309 60.6599 94.3496C63.8613 93.6496 65.8321 92.7026 67.147 91.3369C68.4681 89.9525 69.2458 88.0492 69.7487 85.1365C70.5139 80.7581 72.0255 68.0605 72.2067 65.6853C72.1286 63.8758 72.3847 62.4945 72.9719 61.4351C73.5559 60.36 74.4679 59.6943 75.2675 59.3349C75.6548 59.1568 76.0296 59.0443 76.3388 58.9443C76.0115 58.4876 75.6752 58.0374 75.33 57.5942C74.19 56.2102 73.2529 54.6706 72.5471 53.022C72.2225 52.3307 71.864 51.6559 71.4727 51C70.923 50.0094 70.2234 48.753 69.4894 47.3373C68.0246 44.5371 66.4317 41.1213 65.6009 37.7992C64.7733 34.4771 64.6608 31.0457 66.7753 28.6362C68.6461 26.486 71.9474 25.5953 76.8728 26.0985C76.7261 25.6578 76.648 25.2828 76.4012 24.714C75.281 22.0812 73.8203 19.6068 72.0568 17.3542C67.8747 12.0007 61.0909 6.69104 50.6342 6.5129L50.1438 6.5254ZM22.4935 6.73792C21.9673 6.73736 21.4413 6.75404 20.9162 6.78792C16.7029 7.03481 12.7332 8.25051 9.88478 11.2632C7.03948 14.2915 5.17176 19.2231 5.57466 27.4111C5.65899 28.9737 6.32425 33.3021 7.47674 38.4618C8.63547 43.6246 10.2752 49.6968 12.246 55.0659C14.2105 60.4194 16.5905 65.0915 18.8673 67.3042C20.0042 68.3949 20.9943 68.8511 21.8907 68.8199C22.787 68.7699 23.8771 68.248 25.2107 66.6541C27.6309 63.7321 30.1433 60.8878 32.7441 58.1255C30.8996 56.5188 29.4888 54.4736 28.6417 52.1781C27.7946 49.8827 27.5384 47.4108 27.8967 44.9903C28.3184 41.9151 28.384 39.0305 28.3184 36.7523C28.2715 34.5396 28.1216 33.0771 28.1216 32.1489V32.0489L28.106 32.0207C28.106 27.2173 28.9555 22.467 30.5796 17.9574C31.7509 14.8447 33.478 11.707 36.0766 9.14744C33.5249 8.30051 28.9836 7.03481 24.0738 6.78792C23.5488 6.75414 23.0227 6.73746 22.4966 6.73792H22.4935ZM74.1212 28.7424C71.2947 28.7924 69.7143 29.5268 68.871 30.4675C67.6967 31.8207 67.5842 34.1959 68.3182 37.1273C69.0459 40.0556 70.5638 43.3277 71.9787 46.0497C72.6783 47.4154 73.3623 48.6374 73.912 49.6281C74.4835 50.6375 74.8896 51.3376 75.1332 51.9563C75.3612 52.5095 75.6235 52.997 75.8828 53.4533C76.9728 51.1407 77.1696 48.878 77.054 46.5029C76.9072 43.5746 76.2263 40.5775 76.3388 37.5523C76.4543 34.0021 77.1539 31.6895 77.2039 28.9549C76.1839 28.82 75.1564 28.749 74.1275 28.7424H74.1212ZM39.8339 29.2362C38.9719 29.2362 38.1098 29.3487 37.2634 29.5456C35.586 29.9493 33.9711 30.579 32.463 31.4176C31.9554 31.6924 31.4717 32.0091 31.0169 32.3645L30.9169 32.4426C30.9513 33.0645 31.0637 34.5271 31.1137 36.7085C31.1637 39.0837 31.1137 42.1089 30.6608 45.3841C29.652 52.5126 34.8242 58.4067 40.8927 58.4224C41.2519 56.9567 41.8328 55.4722 42.42 53.9127C44.1097 49.3531 47.4297 46.0341 44.6313 33.0458C44.1784 30.93 43.2664 30.0675 42.0108 29.58C41.3122 29.3339 40.5743 29.2184 39.8339 29.2393V29.2362ZM72.8063 30.08H73.0187C73.278 30.0956 73.5403 30.1144 73.7652 30.1769C73.9682 30.2166 74.1621 30.294 74.3367 30.405C74.4179 30.4537 74.4876 30.5195 74.541 30.5977C74.5943 30.6759 74.6301 30.7648 74.646 30.8582V30.8925C74.6451 31.0924 74.5947 31.2889 74.4992 31.4645C74.3763 31.6889 74.224 31.896 74.0463 32.0801C73.6263 32.55 73.057 32.8602 72.4347 32.9583C71.8326 33.0356 71.2233 32.8851 70.7262 32.5364C70.5294 32.3935 70.3492 32.2289 70.189 32.0457C70.0485 31.8978 69.9569 31.7101 69.9267 31.5082C69.9084 31.3156 69.9667 31.1236 70.0891 30.9738C70.2337 30.8259 70.3989 30.6996 70.5794 30.5988C70.9823 30.3706 71.5196 30.2081 72.1411 30.1237C72.366 30.0956 72.594 30.0769 72.8063 30.0612V30.08ZM40.2368 30.78C40.4492 30.78 40.6959 30.7957 40.9239 30.8269C41.5736 30.9269 42.1264 31.0894 42.5636 31.3488C42.778 31.4533 42.9668 31.6038 43.1165 31.7895C43.2787 31.9853 43.3602 32.2356 43.3445 32.4895C43.3 32.7301 43.1922 32.9545 43.0321 33.1396C42.8608 33.3483 42.6586 33.5296 42.4325 33.6771C41.8913 34.0662 41.2225 34.2349 40.5616 34.149C39.8921 34.0413 39.2789 33.7097 38.822 33.2083C38.6301 33.002 38.4653 32.772 38.3316 32.5239C38.1858 32.3027 38.1228 32.037 38.1536 31.7738C38.2192 31.3363 38.594 31.0894 38.9531 30.9613C39.3623 30.8269 39.7995 30.7832 40.2368 30.7988V30.78ZM77.9629 61.3788H77.9473C77.3476 61.6069 76.8447 61.6913 76.42 61.8882C75.9901 62.0505 75.6367 62.3683 75.4299 62.7789C75.1519 63.2539 74.9427 64.1008 75.0051 65.5447C75.193 65.6799 75.4035 65.7805 75.6267 65.8416C76.3263 66.0541 77.5287 66.201 78.8624 66.1822C81.514 66.1479 84.7841 65.5322 86.5238 64.7165C87.9456 64.0572 89.2656 63.1974 90.4435 62.1632C84.6373 63.3508 81.3704 63.0414 79.3496 62.2132C78.8532 61.9983 78.3878 61.7177 77.966 61.3788H77.9629ZM44.5188 61.7695H44.4345C44.2096 61.7851 43.8973 61.8695 43.2633 62.5539C41.8141 64.179 41.3112 65.204 40.1244 66.151C38.9219 67.1104 37.3759 67.6167 34.2682 68.2511C33.6053 68.3698 32.96 68.5714 32.3474 68.8511C32.4598 68.9512 32.4598 68.9855 32.6379 69.0637C33.097 69.3262 33.6779 69.5387 34.1527 69.6668C35.4863 69.9918 37.6632 70.3825 39.9588 69.9918C42.2357 69.6012 44.6094 68.5074 46.6458 65.6634C47.0049 65.1759 47.0331 64.4415 46.7426 63.6602C46.4521 62.8977 45.815 62.2132 45.3777 62.0351C45.1041 61.9077 44.8139 61.8193 44.5157 61.7726L44.5188 61.7695Z" fill="#EDD51C"/>
</svg>
