<svg width="100" height="100" viewBox="0 0 100 100" fill="none" xmlns="http://www.w3.org/2000/svg">
<path d="M71.6674 0C67.7808 0.0295922 63.9165 0.593228 60.1832 1.6751L59.9239 1.75948C57.575 1.35228 55.1987 1.12349 52.8153 1.07507C47.9024 0.990686 43.686 2.17826 40.2879 4.16588C36.9366 3.01269 29.9904 0.990686 22.6695 1.40009C17.5816 1.6751 12.016 3.22207 7.88074 7.58485C3.783 11.932 1.60608 18.6699 2.05895 27.8517C2.18701 30.3738 2.90536 34.4896 4.10782 39.8431C5.29467 45.1841 6.97187 51.4344 9.07071 57.1473C11.1696 62.8445 13.4589 67.9698 17.0413 71.4513C18.8278 73.192 21.3015 74.6765 24.2124 74.5484C26.2487 74.464 28.0852 73.5702 29.6812 72.2514C30.4589 73.2764 31.2928 73.714 32.0393 74.1234C33.0013 74.6453 33.9101 75.0015 34.8721 75.2328C36.5962 75.6703 39.5414 76.2422 42.9895 75.6547C44.2451 75.4286 45.4689 75.0519 46.6344 74.5328L46.7812 78.6174C46.9592 82.9301 47.0779 86.9179 48.3584 90.4181C48.5708 90.99 49.1424 93.9183 51.3849 96.5216C53.6461 99.1249 58.0343 100.737 63.0628 99.6624C66.5952 98.9124 71.099 97.5467 74.0942 93.2839C77.0551 89.0837 78.3887 83.0458 78.6511 73.2452C78.7136 72.7076 78.7979 72.2701 78.876 71.8451L79.5756 71.9107H79.6599C83.4328 72.0732 87.5337 71.5357 90.9662 69.9387C93.9895 68.5386 96.2851 67.1229 97.9592 64.6009C98.3683 63.979 98.8368 63.2164 98.9555 61.9132C99.0836 60.6288 98.334 58.5911 97.0972 57.6505C94.6267 55.7628 93.065 56.4785 91.3878 56.8379C89.7452 57.192 88.0734 57.3929 86.3937 57.4379C91.2067 49.3343 94.6548 40.7088 96.6256 33.0864C97.7968 28.5768 98.4496 24.4265 98.4964 20.7982C98.562 17.1698 98.2559 13.9634 96.0884 11.1819C89.289 2.50641 79.738 0.0937558 72.3546 0.015626H71.6706L71.6674 0ZM71.4707 2.67204C78.4512 2.60641 87.3775 4.55966 93.7865 12.7602C95.2357 14.6009 95.6605 17.2854 95.6105 20.6075C95.5605 23.9296 94.9452 27.883 93.8209 32.2301C91.6595 40.665 87.5399 50.4594 81.7681 59.2693C81.9667 59.4191 82.1854 59.54 82.4178 59.6287C83.6202 60.1319 86.3687 60.5538 91.8657 59.4318C93.2493 59.1349 94.2612 58.9443 95.3169 59.7412C95.5731 59.9574 95.7754 60.2304 95.9077 60.5386C96.04 60.8467 96.0987 61.1815 96.079 61.5163C96.0221 62.0238 95.8313 62.507 95.5262 62.9164C94.4674 64.5071 92.3748 66.026 89.6888 67.2792C87.3151 68.3824 83.8951 68.9543 80.8905 68.9887C79.3632 69.0043 77.964 68.8886 76.7709 68.5136L76.7084 68.5011C76.2493 72.9108 75.1968 81.6363 74.5096 85.6053C73.9599 88.8086 72.998 91.3682 71.1615 93.2714C69.3219 95.1934 66.7358 96.331 63.2377 97.081C58.912 98.0092 55.77 97.0154 53.7398 95.3059C51.7097 93.5964 50.779 91.3182 50.2261 89.9337C49.8389 88.9743 49.6421 87.7367 49.4484 86.0741C49.2359 84.089 49.0942 82.097 49.0237 80.1018C48.8956 76.6016 48.8457 73.1014 48.8956 69.5856C47.091 71.2412 44.8492 72.3432 42.4367 72.7608C39.5602 73.2483 37.0053 72.7608 35.478 72.3857C34.7245 72.1934 33.9976 71.909 33.3136 71.5388C32.5984 71.1638 31.93 70.7419 31.4771 69.8918C31.2161 69.405 31.1354 68.8417 31.2491 68.3011C31.3841 67.752 31.6999 67.2644 32.1455 66.9166C32.9732 66.2447 34.0663 65.876 35.706 65.5322C38.7012 64.9103 39.7569 64.4915 40.3909 63.9821C40.9281 63.5602 41.5497 62.682 42.6178 61.3944C42.6178 61.3476 42.6178 61.2819 42.6022 61.2319C40.6668 61.173 38.7722 60.6602 37.0709 59.735C36.4556 60.385 33.248 63.7727 29.3626 68.4605C27.7354 70.4106 25.9302 71.5357 24.0125 71.6201C22.1104 71.6982 20.3801 70.7419 18.9184 69.323C15.9919 66.4729 13.6463 61.5726 11.6131 56.0378C9.57981 50.5031 7.93696 44.3371 6.75012 39.0962C5.57889 33.8365 4.87927 29.605 4.77933 27.5705C4.34207 18.8949 6.37532 13.0539 9.85465 9.35683C13.334 5.65973 18.1032 4.27839 22.7569 4.00337C31.1023 3.53147 39.0386 6.44415 40.6346 7.06294C43.7235 4.96281 47.7088 3.66273 52.6873 3.74086C55.0466 3.77558 57.3941 4.08177 59.6834 4.65341L59.7678 4.60341C60.775 4.25435 61.8011 3.96221 62.8411 3.72836C65.6678 3.06458 68.5581 2.70936 71.4613 2.66892L71.4707 2.67204ZM72.1047 5.45346H71.4894C69.1157 5.48159 66.7202 5.76286 64.3965 6.26601C69.5842 8.56303 73.5039 12.0914 76.268 15.6416C78.1889 18.0824 79.7661 20.7669 80.9686 23.6327C81.4433 24.7422 81.7525 25.6672 81.9149 26.3829C82.0117 26.7423 82.0617 27.0486 82.0929 27.3579C82.0929 27.5205 82.1086 27.6861 82.0274 27.9611C82.0274 27.9767 82.0117 28.0111 82.0117 28.0267C82.146 31.6738 81.234 34.1427 81.1154 37.6273C81.0373 40.1525 81.6869 43.1152 81.8493 46.3529C81.9961 49.3937 81.6245 52.7314 79.6537 56.0191C79.8161 56.216 79.9629 56.4097 80.1253 56.6223C85.3474 48.3843 89.1203 39.2868 91.1223 31.5207C92.1968 27.3361 92.7621 23.5452 92.812 20.5544C92.862 17.5573 92.3092 15.376 91.5908 14.4665C85.9939 7.3192 78.4325 5.49409 72.1016 5.45034L72.1047 5.45346ZM52.1438 6.5254C47.234 6.54103 43.7016 8.0255 41.0218 10.2538C38.2515 12.5664 36.3994 15.7072 35.1969 18.9449C33.7477 22.7702 33.2449 26.4798 33.0481 29.0049L33.1137 28.9705C34.8478 27.999 36.7098 27.2762 38.645 26.8235C40.7283 26.3329 42.9895 26.186 45.0196 26.986C47.0716 27.7642 48.7457 29.6362 49.3641 32.452C52.2969 46.0279 48.4552 51.075 47.0404 54.8815C46.5032 56.266 46.0316 57.6661 45.6568 59.0974C45.8348 59.063 46.016 59.013 46.194 58.9974C47.2028 58.9193 47.9805 59.2443 48.4396 59.4381C49.8732 60.0381 50.8477 61.2757 51.3849 62.6914C51.5168 63.0778 51.614 63.4753 51.6753 63.879C51.7291 64.0478 51.7576 64.2237 51.7597 64.4009C51.5957 69.5918 51.6113 74.7869 51.8065 79.9768C51.9065 82.2238 52.0533 84.1927 52.2313 85.7553C52.4093 87.3023 52.6529 88.4899 52.8185 88.8961C53.3525 90.2306 54.1334 91.9713 55.5513 93.1589C56.9506 94.3496 58.9651 95.1309 62.6599 94.3496C65.8613 93.6496 67.8321 92.7026 69.147 91.3369C70.4681 89.9525 71.2458 88.0492 71.7486 85.1365C72.5139 80.7581 74.0255 68.0605 74.2067 65.6853C74.1286 63.8758 74.3847 62.4945 74.9719 61.4351C75.5559 60.36 76.4679 59.6943 77.2675 59.3349C77.6548 59.1568 78.0296 59.0443 78.3388 58.9443C78.0115 58.4876 77.6752 58.0374 77.3299 57.5942C76.19 56.2102 75.2529 54.6706 74.5471 53.022C74.2225 52.3307 73.864 51.6559 73.4727 51C72.923 50.0094 72.2234 48.753 71.4894 47.3373C70.0246 44.5371 68.4317 41.1213 67.6009 37.7992C66.7733 34.4771 66.6608 31.0457 68.7753 28.6362C70.6461 26.486 73.9474 25.5953 78.8728 26.0985C78.7261 25.6578 78.648 25.2828 78.4012 24.714C77.281 22.0812 75.8203 19.6068 74.0568 17.3542C69.8747 12.0007 63.0909 6.69104 52.6342 6.5129L52.1438 6.5254ZM24.4935 6.73792C23.9673 6.73736 23.4413 6.75404 22.9162 6.78792C18.7029 7.03481 14.7332 8.25051 11.8848 11.2632C9.03948 14.2915 7.17176 19.2231 7.57466 27.4111C7.65899 28.9737 8.32425 33.3021 9.47674 38.4618C10.6355 43.6246 12.2752 49.6968 14.246 55.0659C16.2105 60.4194 18.5905 65.0915 20.8673 67.3042C22.0042 68.3949 22.9943 68.8511 23.8907 68.8199C24.787 68.7699 25.8771 68.248 27.2107 66.6541C29.6309 63.7321 32.1433 60.8878 34.7441 58.1255C32.8996 56.5188 31.4888 54.4736 30.6417 52.1781C29.7946 49.8827 29.5384 47.4108 29.8967 44.9903C30.3184 41.9151 30.384 39.0305 30.3184 36.7523C30.2715 34.5396 30.1216 33.077 30.1216 32.1489V32.0489L30.106 32.0207C30.106 27.2173 30.9555 22.467 32.5796 17.9574C33.7509 14.8447 35.478 11.707 38.0766 9.14744C35.5249 8.30052 30.9836 7.03481 26.0738 6.78792C25.5488 6.75414 25.0227 6.73746 24.4966 6.73792H24.4935ZM76.1212 28.7424C73.2947 28.7924 71.7143 29.5268 70.871 30.4675C69.6967 31.8207 69.5842 34.1959 70.3182 37.1273C71.0459 40.0556 72.5638 43.3277 73.9787 46.0497C74.6783 47.4154 75.3623 48.6374 75.912 49.6281C76.4835 50.6375 76.8896 51.3376 77.1332 51.9563C77.3612 52.5095 77.6235 52.997 77.8828 53.4533C78.9728 51.1407 79.1696 48.878 79.054 46.5029C78.9072 43.5746 78.2263 40.5775 78.3388 37.5523C78.4543 34.0021 79.1539 31.6895 79.2039 28.9549C78.1839 28.82 77.1564 28.749 76.1275 28.7424H76.1212ZM41.8339 29.2362C40.9719 29.2362 40.1098 29.3487 39.2634 29.5456C37.586 29.9493 35.9711 30.579 34.463 31.4176C33.9554 31.6924 33.4717 32.0091 33.0169 32.3645L32.9169 32.4426C32.9513 33.0645 33.0637 34.5271 33.1137 36.7085C33.1637 39.0837 33.1137 42.1089 32.6608 45.3841C31.652 52.5126 36.8242 58.4067 42.8927 58.4224C43.2519 56.9567 43.8328 55.4722 44.42 53.9127C46.1097 49.3531 49.4297 46.0341 46.6313 33.0458C46.1784 30.93 45.2664 30.0675 44.0108 29.58C43.3122 29.3339 42.5743 29.2184 41.8339 29.2393V29.2362ZM74.8063 30.08H75.0187C75.278 30.0956 75.5403 30.1144 75.7652 30.1769C75.9682 30.2166 76.1621 30.294 76.3367 30.405C76.4179 30.4537 76.4876 30.5195 76.541 30.5977C76.5943 30.6759 76.6301 30.7648 76.646 30.8582V30.8925C76.6451 31.0924 76.5947 31.2889 76.4992 31.4645C76.3763 31.6889 76.224 31.896 76.0463 32.0801C75.6263 32.55 75.057 32.8602 74.4347 32.9583C73.8326 33.0356 73.2233 32.8851 72.7262 32.5364C72.5294 32.3935 72.3492 32.2289 72.189 32.0457C72.0485 31.8978 71.9569 31.7101 71.9267 31.5082C71.9084 31.3156 71.9667 31.1236 72.0891 30.9738C72.2337 30.8259 72.3989 30.6996 72.5794 30.5988C72.9823 30.3706 73.5196 30.2081 74.1411 30.1237C74.366 30.0956 74.594 30.0769 74.8063 30.0612V30.08ZM42.2368 30.78C42.4492 30.78 42.6959 30.7957 42.9239 30.8269C43.5736 30.9269 44.1264 31.0894 44.5636 31.3488C44.778 31.4533 44.9668 31.6038 45.1165 31.7895C45.2787 31.9853 45.3602 32.2356 45.3445 32.4895C45.3 32.7301 45.1922 32.9545 45.0321 33.1396C44.8608 33.3483 44.6586 33.5296 44.4325 33.6771C43.8913 34.0662 43.2225 34.2349 42.5616 34.149C41.8921 34.0413 41.2789 33.7097 40.822 33.2083C40.6301 33.002 40.4653 32.772 40.3316 32.5239C40.1858 32.3027 40.1228 32.037 40.1536 31.7738C40.2192 31.3363 40.594 31.0894 40.9531 30.9613C41.3623 30.8269 41.7995 30.7832 42.2368 30.7988V30.78ZM79.9629 61.3788H79.9473C79.3476 61.6069 78.8447 61.6913 78.42 61.8882C77.9901 62.0505 77.6367 62.3683 77.4299 62.7789C77.1519 63.2539 76.9427 64.1009 77.0051 65.5447C77.193 65.6799 77.4035 65.7804 77.6267 65.8416C78.3263 66.0541 79.5287 66.201 80.8624 66.1822C83.514 66.1479 86.7841 65.5322 88.5238 64.7165C89.9456 64.0572 91.2656 63.1974 92.4435 62.1632C86.6373 63.3508 83.3704 63.0414 81.3496 62.2132C80.8532 61.9983 80.3878 61.7177 79.966 61.3788H79.9629ZM46.5188 61.7695H46.4345C46.2096 61.7851 45.8973 61.8695 45.2633 62.5539C43.8141 64.179 43.3112 65.204 42.1244 66.151C40.9219 67.1104 39.3759 67.6167 36.2682 68.2511C35.6053 68.3698 34.96 68.5714 34.3474 68.8511C34.4598 68.9511 34.4598 68.9855 34.6379 69.0637C35.097 69.3262 35.6779 69.5387 36.1527 69.6668C37.4863 69.9918 39.6632 70.3825 41.9588 69.9918C44.2357 69.6012 46.6094 68.5074 48.6458 65.6634C49.0049 65.1759 49.0331 64.4415 48.7426 63.6602C48.4521 62.8977 47.815 62.2132 47.3777 62.0351C47.1041 61.9077 46.8139 61.8193 46.5157 61.7726L46.5188 61.7695Z" fill="#EDD51C"/>
</svg>
