<svg width="100" height="100" viewBox="0 0 100 100" fill="none" xmlns="http://www.w3.org/2000/svg">
<g clip-path="url(#clip0_216_15)">
<path d="M84.4844 13H16.5156C14.574 13 13 14.574 13 16.5156V84.4844C13 86.426 14.574 88 16.5156 88H84.4844C86.426 88 88 86.426 88 84.4844V16.5156C88 14.574 86.426 13 84.4844 13Z" fill="#EDD51C"/>
<path fill-rule="evenodd" clip-rule="evenodd" d="M56.513 71.282V79.5004C57.8445 80.1848 59.4191 80.6986 61.2371 81.0408C63.0551 81.3836 64.9712 81.5547 66.9855 81.5547C68.9485 81.5547 70.8134 81.3666 72.5799 80.9898C74.3471 80.6131 75.8957 79.9926 77.2275 79.1277C78.5588 78.2629 79.6129 77.1332 80.3898 75.7375C81.1662 74.3424 81.5547 72.6174 81.5547 70.5629C81.5547 69.0734 81.3326 67.7679 80.8891 66.6464C80.4449 65.525 79.8051 64.5278 78.9684 63.6545C78.1322 62.7814 77.1291 61.9981 75.9602 61.3047C74.7906 60.6113 73.4723 59.9564 72.0039 59.34C70.9286 58.8949 69.9641 58.4626 69.1107 58.0431C68.2571 57.6237 67.5317 57.1956 66.9343 56.759C66.3368 56.3224 65.8759 55.8602 65.5516 55.3722C65.2272 54.8843 65.0651 54.3321 65.0651 53.7157C65.0651 53.1507 65.2101 52.6414 65.5004 52.1877C65.7906 51.734 66.2003 51.3445 66.7294 51.0191C67.2586 50.6939 67.9072 50.4413 68.6754 50.2616C69.4435 50.0818 70.297 49.9919 71.2359 49.9919C71.9189 49.9919 72.6396 50.0433 73.3996 50.146C74.159 50.2487 74.923 50.4071 75.6912 50.6211C76.4594 50.8351 77.2059 51.1047 77.9318 51.4301C78.6572 51.7554 79.327 52.132 79.9416 52.56V44.8813C78.6953 44.4019 77.3342 44.0466 75.8576 43.8155C74.3811 43.5843 72.6871 43.4688 70.775 43.4688C68.829 43.4688 66.9855 43.6785 65.2443 44.0979C63.5032 44.5174 61.9711 45.1723 60.6482 46.0626C59.3253 46.9529 58.2797 48.0872 57.5116 49.4654C56.7435 50.8437 56.3594 52.4915 56.3594 54.4091C56.3594 56.8575 57.0635 58.9462 58.4718 60.6754C59.8801 62.4047 62.0181 63.8686 64.8858 65.067C66.0125 65.5293 67.0623 65.983 68.0352 66.4282C69.0082 66.8733 69.8489 67.3356 70.5573 67.815C71.2657 68.2944 71.8246 68.8166 72.2342 69.3815C72.6443 69.9466 72.8488 70.5886 72.8488 71.3077C72.8488 71.8387 72.7211 72.3309 72.465 72.7844C72.209 73.2379 71.8205 73.6316 71.2999 73.9656C70.7792 74.2996 70.1306 74.5609 69.3539 74.749C68.5772 74.9371 67.6683 75.0314 66.627 75.0314C64.8517 75.0314 63.0935 74.7191 61.3523 74.0939C59.6112 73.4693 57.9981 72.5318 56.513 71.282ZM42.7086 50.8248H53.4297V44.0547H23.5469V50.8248H34.2156V80.9688H42.7086V50.8248Z" fill="#173550"/>
</g>
<defs>
<clipPath id="clip0_216_15">
<rect width="75" height="75" fill="white" transform="translate(13 13)"/>
</clipPath>
</defs>
</svg>
